<?xml version="1.0" standalone="no"?>
<svg width="256" height="256" version="1.1" xmlns="http://www.w3.org/2000/svg">
<rect x="0" y="0" width="32" height="32" stroke="grey" fill="black" />
<rect x="0" y="32" width="32" height="32" stroke="grey" fill="red" />
<rect x="0" y="64" width="32" height="32" stroke="grey" fill="black" />
<rect x="0" y="96" width="32" height="32" stroke="grey" fill="red" />
<rect x="0" y="128" width="32" height="32" stroke="grey" fill="black" />
<rect x="0" y="160" width="32" height="32" stroke="grey" fill="red" />
<rect x="0" y="192" width="32" height="32" stroke="grey" fill="black" />
<rect x="0" y="224" width="32" height="32" stroke="grey" fill="red" />
<rect x="32" y="0" width="32" height="32" stroke="grey" fill="red" />
<rect x="32" y="32" width="32" height="32" stroke="grey" fill="black" />
<rect x="32" y="64" width="32" height="32" stroke="grey" fill="red" />
<rect x="32" y="96" width="32" height="32" stroke="grey" fill="black" />
<rect x="32" y="128" width="32" height="32" stroke="grey" fill="red" />
<rect x="32" y="160" width="32" height="32" stroke="grey" fill="black" />
<rect x="32" y="192" width="32" height="32" stroke="grey" fill="red" />
<rect x="32" y="224" width="32" height="32" stroke="grey" fill="black" />
<rect x="64" y="0" width="32" height="32" stroke="grey" fill="black" />
<rect x="64" y="32" width="32" height="32" stroke="grey" fill="red" />
<rect x="64" y="64" width="32" height="32" stroke="grey" fill="black" />
<rect x="64" y="96" width="32" height="32" stroke="grey" fill="red" />
<rect x="64" y="128" width="32" height="32" stroke="grey" fill="black" />
<rect x="64" y="160" width="32" height="32" stroke="grey" fill="red" />
<rect x="64" y="192" width="32" height="32" stroke="grey" fill="black" />
<rect x="64" y="224" width="32" height="32" stroke="grey" fill="red" />
<rect x="96" y="0" width="32" height="32" stroke="grey" fill="red" />
<rect x="96" y="32" width="32" height="32" stroke="grey" fill="black" />
<rect x="96" y="64" width="32" height="32" stroke="grey" fill="red" />
<rect x="96" y="96" width="32" height="32" stroke="grey" fill="black" />
<rect x="96" y="128" width="32" height="32" stroke="grey" fill="red" />
<rect x="96" y="160" width="32" height="32" stroke="grey" fill="black" />
<rect x="96" y="192" width="32" height="32" stroke="grey" fill="red" />
<rect x="96" y="224" width="32" height="32" stroke="grey" fill="black" />
<rect x="128" y="0" width="32" height="32" stroke="grey" fill="black" />
<rect x="128" y="32" width="32" height="32" stroke="grey" fill="red" />
<rect x="128" y="64" width="32" height="32" stroke="grey" fill="black" />
<rect x="128" y="96" width="32" height="32" stroke="grey" fill="red" />
<rect x="128" y="128" width="32" height="32" stroke="grey" fill="black" />
<rect x="128" y="160" width="32" height="32" stroke="grey" fill="red" />
<rect x="128" y="192" width="32" height="32" stroke="grey" fill="black" />
<rect x="128" y="224" width="32" height="32" stroke="grey" fill="red" />
<rect x="160" y="0" width="32" height="32" stroke="grey" fill="red" />
<rect x="160" y="32" width="32" height="32" stroke="grey" fill="black" />
<rect x="160" y="64" width="32" height="32" stroke="grey" fill="red" />
<rect x="160" y="96" width="32" height="32" stroke="grey" fill="black" />
<rect x="160" y="128" width="32" height="32" stroke="grey" fill="red" />
<rect x="160" y="160" width="32" height="32" stroke="grey" fill="black" />
<rect x="160" y="192" width="32" height="32" stroke="grey" fill="red" />
<rect x="160" y="224" width="32" height="32" stroke="grey" fill="black" />
<rect x="192" y="0" width="32" height="32" stroke="grey" fill="black" />
<rect x="192" y="32" width="32" height="32" stroke="grey" fill="red" />
<rect x="192" y="64" width="32" height="32" stroke="grey" fill="black" />
<rect x="192" y="96" width="32" height="32" stroke="grey" fill="red" />
<rect x="192" y="128" width="32" height="32" stroke="grey" fill="black" />
<rect x="192" y="160" width="32" height="32" stroke="grey" fill="red" />
<rect x="192" y="192" width="32" height="32" stroke="grey" fill="black" />
<rect x="192" y="224" width="32" height="32" stroke="grey" fill="red" />
<rect x="224" y="0" width="32" height="32" stroke="grey" fill="red" />
<rect x="224" y="32" width="32" height="32" stroke="grey" fill="black" />
<rect x="224" y="64" width="32" height="32" stroke="grey" fill="red" />
<rect x="224" y="96" width="32" height="32" stroke="grey" fill="black" />
<rect x="224" y="128" width="32" height="32" stroke="grey" fill="red" />
<rect x="224" y="160" width="32" height="32" stroke="grey" fill="black" />
<rect x="224" y="192" width="32" height="32" stroke="grey" fill="red" />
<rect x="224" y="224" width="32" height="32" stroke="grey" fill="black" />
</svg>
